<mxfile host="app.diagrams.net" modified="2023-04-23T11:12:07.475Z" agent="Mozilla/5.0 (Windows NT 10.0; Win64; x64) AppleWebKit/537.36 (KHTML, like Gecko) Chrome/112.0.0.0 Safari/537.36" version="21.2.1" etag="-fxI9ARWCogHxziy3Ppv" type="github">
  <diagram name="ページ1" id="cNa02E0I-ziU84_bytpI">
    <mxGraphModel>
      <root>
        <mxCell id="0" />
        <mxCell id="1" parent="0" />
      </root>
    </mxGraphModel>
  </diagram>
</mxfile>
